<?xml version="1.0" standalone="no"?><!DOCTYPE svg PUBLIC "-//W3C//DTD SVG 1.1//EN" "http://www.w3.org/Graphics/SVG/1.1/DTD/svg11.dtd">
<svg class="icon" width="20px" height="20.00px" viewBox="0 0 1024 1024" version="1.1"
     xmlns="http://www.w3.org/2000/svg">
    <path fill="#254EF4"
          d="M512 0c-282.77 0-512 229.23-512 512 0 282.769 229.23 512 512 512s512-229.231 512-512c0-282.77-229.23-512-512-512z m0 947.2c-240.356 0-435.2-194.847-435.2-435.2s194.844-435.2 435.2-435.2 435.2 194.847 435.2 435.2-194.844 435.2-435.2 435.2zM755.472 614.742l-38.956 27.072c28.209 37.409 55.747 76.823 82.614 118.195l45.67-31.695c-27.769-37.409-57.541-75.273-89.328-113.572zM633.292 734.019c-4.481 25.958-23.508 38.958-57.091 38.958H435.156c-30.894 0-46.341-13.433-46.341-40.28v-93.105H339.112v95.747c0 55.9 27.759 83.861 83.284 83.861h162.538c52.828 0 84.847-20.47 96.044-61.409 5.373-18.491 11.188-43.15 17.464-73.956-20.15-7.038-37.844-13.639-53.061-19.809-4.48 31.694-8.513 55.032-12.089 69.993z m-454.092 29.294c20.15 9.244 36.038 16.942 47.688 23.111 24.62-42.716 46.344-91.783 65.15-147.252l-49.703-16.509c-15.227 51.071-36.271 97.956-63.135 140.65z m256.629-110.513C474.332 677.005 509.929 700.777 542.62 724.114l32.911-42.261c-30.003-18.489-66.944-40.508-110.822-66.03l-28.88 36.977z m-147.762-68.672h196.792v40.936h49.702v-40.936h196.792v25.091h48.359V438.855H534.561v-51.505h190.078v18.489h48.358V246.044H534.561v-55.467h-49.702v55.467H246.423v159.795h48.358v-18.489h190.078v51.505H239.708v170.364h48.359v-25.091zM534.561 288.305h190.078v56.786H534.561V288.305z m0 192.811h196.792v60.748H534.561v-60.748z m-239.78-136.025V288.305h190.078v56.786H294.781z m-6.714 136.025h196.792v60.748H288.067v-60.748z"/>
</svg>